<svg xmlns="http://www.w3.org/2000/svg" version="1.1" xmlns:xlink="http://www.w3.org/1999/xlink" xmlns:svgjs="http://svgjs.com/svgjs" width="1440" height="560" preserveAspectRatio="none" viewBox="0 0 1440 560"><g mask="url(&quot;#SvgjsMask1113&quot;)" fill="none"><rect width="1440" height="560" x="0" y="0" fill="rgba(0, 0, 0, 1)"></rect><path d="M 0,61 C 72,89.4 216,199.8 360,203 C 504,206.2 576,89.2 720,77 C 864,64.8 936,151.4 1080,142 C 1224,132.6 1368,52.4 1440,30L1440 560L0 560z" fill="#184a7e"></path><path d="M 0,451 C 57.6,417.6 172.8,281.2 288,284 C 403.2,286.8 460.8,462.2 576,465 C 691.2,467.8 748.8,292 864,298 C 979.2,304 1036.8,493 1152,495 C 1267.2,497 1382.4,345.4 1440,308L1440 560L0 560z" fill="#2264ab"></path></g><defs><mask id="SvgjsMask1113"><rect width="1440" height="560" fill="#ffffff"></rect></mask></defs></svg>